<?xml version="1.0" standalone="no"?>
<!DOCTYPE svg PUBLIC "-//W3C//DTD SVG 1.1//EN" "http://www.w3.org/Graphics/SVG/1.1/DTD/svg11.dtd">
<svg width="128px" height="80px" version="1.1" xmlns="http://www.w3.org/2000/svg" xmlns:xlink="http://www.w3.org/1999/xlink" xml:space="preserve" style="fill-rule:evenodd;clip-rule:evenodd;stroke-linejoin:round;stroke-miterlimit:1.41421;">
    <g id="Ebene_1">
        <g id="cloud">
            <g id="body">
                <path d="M107.697,32.3816C106.421,32.2075 105.138,32.1649 103.888,32.2075C101.547,17.6535 89.9253,5.73745 74.5652,3.76922C58.9786,1.77473 44.4771,10.6129 38.7153,24.4775C36.4269,23.4663 33.9646,22.7752 31.3562,22.4337C16.6101,20.5147 3.09677,30.9255 1.19256,45.6798C-0.705079,60.4489 9.7106,73.949 24.4649,75.8631L102.037,76.3145C114.181,77.8871 125.288,69.3182 126.865,57.1789C128.408,45.0297 119.843,33.9361 107.697,32.3816Z" style="fill:rgb(235,237,239);fill-rule:nonzero;"/>
            </g>
            <g id="shade">
                <path d="M9.04413,52.3757C10.9434,37.6477 24.4354,27.2336 39.2094,29.1296C41.7965,29.4497 44.2818,30.1622 46.5685,31.1684C52.3303,17.3039 66.8056,8.44438 82.4184,10.4602C87.3841,11.1103 91.9953,12.806 96.0121,15.2897C90.7099,9.16338 83.2261,4.90026 74.5636,3.76922C58.977,1.77473 44.4755,10.6129 38.7136,24.4775C36.4253,23.4663 33.963,22.7752 31.3545,22.4337C16.6084,20.5147 3.09512,30.9255 1.19092,45.6798C-0.260217,56.8769 5.39659,67.373 14.6829,72.6177C10.3081,67.0988 8.06083,59.9121 9.04413,52.3757Z" style="fill:white;fill-rule:nonzero;"/>
            </g>
        </g>
    </g>
</svg>
