<?xml version="1.0" standalone="no"?>
<!DOCTYPE svg PUBLIC "-//W3C//DTD SVG 1.1//EN" "http://www.w3.org/Graphics/SVG/1.1/DTD/svg11.dtd">
<svg width="153px" height="71px" version="1.1" xmlns="http://www.w3.org/2000/svg" xmlns:xlink="http://www.w3.org/1999/xlink" xml:space="preserve" style="fill-rule:evenodd;clip-rule:evenodd;stroke-linejoin:round;stroke-miterlimit:1.41421;">
    <g>
        <g id="Livello 2">
            <path d="M20.3546,69.1384C19.8889,69.3519 18.7817,69.7934 17.233,69.7934C14.1802,69.7934 12.1463,67.6654 12.1463,64.6262C12.1463,61.3959 14.4451,59.2261 17.6124,59.2261C18.9146,59.2261 19.9946,59.5832 20.3983,59.8578L20.0199,60.6797C19.5114,60.3876 18.6944,60.0907 17.5231,60.0907C14.6673,60.0907 13.2079,62.1566 13.2079,64.5408C13.2079,67.2016 14.9584,68.9298 17.4115,68.9298C18.6701,68.9298 19.492,68.5901 20.0674,68.3408Z" style="fill:white;fill-rule:nonzero;"/>
            <path d="M26.8781,69.8164C24.1339,69.8164 22.0088,67.767 22.0088,64.6036C22.0088,61.1442 24.3969,59.2258 27.0276,59.2258C29.9726,59.2258 31.959,61.3335 31.959,64.4328C31.959,68.1939 29.241,69.8164 26.8985,69.8164ZM26.9412,68.9741C29.1527,68.9741 30.9013,67.0751 30.9013,64.4794C30.9013,62.6231 29.8135,60.0681 27.0072,60.0681C24.2853,60.0681 23.0724,62.3688 23.0724,64.5405C23.0724,67.0751 24.754,68.9741 26.9199,68.9741Z" style="fill:white;fill-rule:nonzero;"/>
            <path d="M34.66,61.8858C34.66,60.9523 34.6377,60.2575 34.5707,59.456L35.5663,59.456L35.6323,61.2327L35.6721,61.2327C36.3562,60.0673 37.3799,59.226 39.1237,59.226C40.5811,59.226 41.7126,60.1537 42.1803,61.421L42.222,61.421C42.5102,60.83 42.9081,60.3633 43.3059,60.0489C43.99,59.522 44.6974,59.226 45.8269,59.226C46.8672,59.226 49.3008,59.7723 49.3008,63.6111L49.3008,69.5866L48.2373,69.5866L48.2373,63.7004C48.2373,61.421 47.3077,60.0673 45.4728,60.0673C44.1434,60.0673 43.1051,61.0163 42.6859,62.075C42.5995,62.369 42.5102,62.7028 42.5102,63.0861L42.5102,69.5866L41.4506,69.5866L41.4506,63.2375C41.4506,61.421 40.5423,60.0673 38.8122,60.0673C37.4051,60.0673 36.2747,61.1687 35.8768,62.3448C35.7895,62.6417 35.7196,62.9833 35.7196,63.3365L35.7196,69.5866L34.66,69.5866Z" style="fill:white;fill-rule:nonzero;"/>
            <path d="M52.769,61.8858C52.769,60.9523 52.7467,60.2575 52.6778,59.456L53.6734,59.456L53.7413,61.2327L53.7869,61.2327C54.4749,60.0673 55.4899,59.226 57.2366,59.226C58.697,59.226 59.8236,60.1537 60.2894,61.421L60.3369,61.421C60.6193,60.83 61.0171,60.3633 61.4169,60.0489C62.1049,59.522 62.8065,59.226 63.9321,59.226C64.9782,59.226 67.406,59.7723 67.406,63.6111L67.406,69.5866L66.3464,69.5866L66.3464,63.7004C66.3464,61.421 65.4187,60.0673 63.5818,60.0673C62.2524,60.0673 61.2161,61.0163 60.7949,62.075C60.7105,62.369 60.6193,62.7028 60.6193,63.0861L60.6193,69.5866L59.5596,69.5866L59.5596,63.2375C59.5596,61.421 58.6504,60.0673 56.929,60.0673C55.5103,60.0673 54.3837,61.1687 53.9849,62.3448C53.8985,62.6417 53.8287,62.9833 53.8287,63.3394L53.8287,69.5866L52.769,69.5866Z" style="fill:white;fill-rule:nonzero;"/>
            <path d="M79.0618,67.1181C79.0618,68.0021 79.0841,68.8027 79.151,69.5857L78.1545,69.5857L78.0895,67.7673L78.0419,67.7673C77.5121,68.7182 76.2982,69.8167 74.4137,69.8167C73.0649,69.8167 70.7943,69.1646 70.7943,65.3423L70.7943,59.4561L71.8519,59.4561L71.8519,65.1541C71.8519,67.351 72.5593,68.9298 74.6592,68.9298C76.2099,68.9298 77.3394,67.8992 77.8032,66.8842C77.9099,66.566 77.9963,66.1633 77.9963,65.7683L77.9963,59.4561L79.0618,59.4561Z" style="fill:white;fill-rule:nonzero;"/>
            <path d="M82.6229,61.8858C82.6229,60.9513 82.5987,60.2575 82.5317,59.456L83.5273,59.456L83.5952,61.2686L83.6408,61.2686C84.2124,60.1314 85.5583,59.226 87.2913,59.226C88.3073,59.226 91.0059,59.7044 91.0059,63.5073L91.0059,69.5866L89.9443,69.5866L89.9443,63.5907C89.9443,61.7354 89.1865,60.0673 86.9993,60.0673C85.5224,60.0673 84.2376,61.0804 83.8155,62.4088C83.7505,62.6417 83.6845,62.9833 83.6845,63.2957L83.6845,69.5866L82.6229,69.5866Z" style="fill:white;fill-rule:nonzero;"/>
            <path d="M94.9591,57.4276C94.4758,57.4276 94.144,57.0298 94.144,56.5708C94.144,56.105 94.5176,55.68 95.0066,55.68C95.4918,55.68 95.846,56.0798 95.846,56.5708C95.846,57.0298 95.5083,57.4276 94.9814,57.4276ZM94.4758,59.4557L95.5374,59.4557L95.5374,69.5854L94.4758,69.5854Z" style="fill:white;fill-rule:nonzero;"/>
            <path d="M106.416,69.1384C105.948,69.3519 104.845,69.7934 103.298,69.7934C100.243,69.7934 98.2114,67.6654 98.2114,64.6262C98.2114,61.3959 100.512,59.2261 103.676,59.2261C104.977,59.2261 106.062,59.5832 106.463,59.8598L106.081,60.6797C105.573,60.3876 104.758,60.0907 103.584,60.0907C100.732,60.0907 99.2721,62.1566 99.2721,64.5408C99.2721,67.2016 101.019,68.9298 103.481,68.9298C104.733,68.9298 105.549,68.5901 106.131,68.3408Z" style="fill:white;fill-rule:nonzero;"/>
            <path d="M115.571,67.1796C115.571,67.9802 115.59,68.803 115.719,69.5861L114.753,69.5861L114.594,68.1248L114.552,68.1248C114.023,68.9117 112.851,69.8161 111.148,69.8161C108.999,69.8161 108.027,68.3829 108.027,67.0282C108.027,64.6906 110.173,63.2749 114.51,63.3185L114.51,63.043C114.51,62.0474 114.311,60.0494 111.792,60.0678C110.861,60.0678 109.884,60.2988 109.113,60.8295L108.783,60.0911C109.755,59.4778 110.945,59.2255 111.897,59.2255C114.971,59.2255 115.571,61.4195 115.571,63.2147ZM114.51,64.1628C112.185,64.0968 109.132,64.4325 109.132,66.8604C109.132,68.3169 110.153,68.9748 111.255,68.9748C113.028,68.9748 114.044,67.9423 114.398,66.9458C114.485,66.7352 114.51,66.5042 114.51,66.3354Z" style="fill:white;fill-rule:nonzero;"/>
            <path d="M120.457,57.222L120.457,59.4558L123.484,59.4558L123.484,60.2806L120.457,60.2806L120.457,66.8607C120.457,68.1503 120.877,68.9499 122.01,68.9499C122.558,68.9499 122.955,68.8897 123.221,68.8033L123.351,69.568C123.003,69.6912 122.512,69.7931 121.874,69.7931C121.092,69.7931 120.457,69.568 120.06,69.1012C119.571,68.5714 119.396,67.7107 119.396,66.6744L119.396,60.2806L117.607,60.2806L117.607,59.4558L119.396,59.4558L119.396,57.5995Z" style="fill:white;fill-rule:nonzero;"/>
            <path d="M126.316,57.4309C125.831,57.4309 125.499,57.0302 125.499,56.5702C125.499,56.1054 125.874,55.6804 126.362,55.6804C126.849,55.6804 127.2,56.0802 127.2,56.5702C127.2,57.0302 126.867,57.4309 126.338,57.4309ZM125.831,59.4561L126.89,59.4561L126.89,69.5857L125.831,69.5857Z" style="fill:white;fill-rule:nonzero;"/>
            <path d="M134.429,69.8164C131.692,69.8164 129.57,67.767 129.57,64.6036C129.57,61.1442 131.956,59.2258 134.585,59.2258C137.532,59.2258 139.516,61.3335 139.516,64.4328C139.516,68.1939 136.798,69.8164 134.452,69.8164ZM134.501,68.9741C136.709,68.9741 138.455,67.0751 138.455,64.4794C138.455,62.625 137.373,60.0681 134.562,60.0681C131.845,60.0681 130.633,62.3688 130.633,64.5405C130.633,67.0751 132.308,68.9741 134.479,68.9741Z" style="fill:white;fill-rule:nonzero;"/>
            <path d="M142.221,61.8858C142.221,60.9513 142.193,60.2575 142.126,59.456L143.119,59.456L143.189,61.2745L143.239,61.2745C143.807,60.1314 145.156,59.226 146.881,59.226C147.898,59.226 150.597,59.7044 150.597,63.5073L150.597,69.5866L149.533,69.5866L149.533,63.5907C149.533,61.7354 148.782,60.0673 146.595,60.0673C145.114,60.0673 143.828,61.0804 143.41,62.4088C143.346,62.6417 143.28,62.9833 143.28,63.2957L143.28,69.5866L142.221,69.5866Z" style="fill:white;fill-rule:nonzero;"/>
            <path d="M15.3095,14.9694L16.5564,15.3498L16.9679,15.472C17.0397,15.5167 17.0989,15.4623 17.16,15.4245L17.3434,15.3119L17.847,15.0101C18.0819,14.8743 18.3215,14.7481 18.5602,14.6317C19.0415,14.3998 19.5248,14.2038 20.008,14.0398C20.4913,13.8806 20.9687,13.7555 21.4345,13.6575C21.6693,13.6167 21.8973,13.5682 22.1244,13.54L22.4601,13.4954L22.6581,13.476C23.5838,13.3828 24.3349,13.4139 24.7648,13.4498C27.0102,13.6575 28.3512,13.7564 30.3851,13.7943C28.6113,12.8113 27.3459,12.1699 24.8841,11.9157C24.397,11.872 23.5537,11.8332 22.5077,11.936L22.2835,11.9574L21.907,12.0078C21.6489,12.0389 21.3918,12.0923 21.1259,12.1388C20.6009,12.2495 20.0604,12.3902 19.5151,12.5697C18.9717,12.754 18.4244,12.9763 17.881,13.2383C17.6103,13.3702 17.3424,13.5129 17.0756,13.6652L16.8291,13.8098C16.8291,13.8137 16.8233,13.8117 16.8165,13.8088L15.7724,13.4915L14.6371,13.1247C13.8821,12.8715 13.1301,12.6085 12.4343,12.298C11.038,11.6769 9.72992,10.8318 8.54899,9.98365C7.36999,9.12973 6.31618,8.25834 5.42344,7.47138L4.58892,6.71643C4.58601,6.70479 4.57437,6.72031 4.61318,6.68926C5.38948,6.1313 5.87272,5.84602 5.86981,5.84407C5.87175,5.8499 6.55392,5.39285 7.76105,4.77861C8.96818,4.17116 10.7216,3.40846 12.8176,3.0009C14.902,2.57976 17.3395,2.60694 19.5607,3.38614C21.8236,4.20028 24.0069,5.33948 25.6371,6.6388C26.819,7.56453 27.5982,8.50482 27.9524,8.98515C28.6103,9.86915 29.048,10.6027 29.441,11.3334C29.8213,12.0699 30.193,12.7997 30.3851,13.7943C30.6879,12.8142 30.6821,11.8875 30.5074,10.9657C30.324,10.0419 29.9339,9.09092 29.1906,8.07009C28.7889,7.51407 27.901,6.44376 26.5997,5.42391C24.7861,3.98777 22.499,2.7981 20.0663,1.92283C17.5511,1.03882 14.804,1.02039 12.5236,1.48422C10.2267,1.93253 8.352,2.7554 7.06724,3.40361C5.77859,4.05957 5.05664,4.54476 5.0547,4.5399C5.0547,4.54378 4.54526,4.84363 3.71074,5.44234C3.43807,5.64127 3.07418,5.91297 2.75687,6.18467C2.6055,6.32344 2.40075,6.46123 2.27363,6.61357L2.78404,7.12011C3.66126,7.97694 3.91549,8.19042 4.40261,8.62708C5.32543,9.44219 6.40933,10.3427 7.64364,11.2364C8.87794,12.1243 10.2529,13.0199 11.8065,13.7137C12.5838,14.0602 13.3688,14.3328 14.148,14.5948Z" style="fill:rgb(214,224,61);fill-rule:nonzero;"/>
            <path d="M41.2279,6.69101L41.225,6.6978L41.2172,6.7143C41.2114,6.71721 41.2075,6.70848 41.2075,6.70848C41.3482,6.60562 41.4239,6.55225 41.2279,6.69101M53.5632,25.3405C53.2032,23.523 52.5491,21.7579 51.572,20.2237C51.0558,19.4038 50.4386,18.6653 49.7652,18.0094L49.769,18.0016C49.672,17.9133 49.5769,17.8376 49.4809,17.7541C48.9714,17.2874 48.4396,16.8556 47.8759,16.4936C47.6333,16.3355 47.3839,16.2035 47.1345,16.0677C47.0889,16.0415 47.0443,16.0153 47.0006,15.99C46.888,15.9308 46.7764,15.8687 46.6629,15.8134C45.2549,15.0837 44.0711,14.7936 43.3365,14.681L43.3229,14.6664C43.3229,14.6664 38.1858,13.928 34.6168,15.1468L41.3725,7.63421C41.5074,7.49835 41.6063,7.43625 41.8062,7.17037C41.8266,7.13932 41.8732,7.06945 41.9149,6.96174C41.9722,6.82298 41.9663,6.60271 41.9304,6.50179L41.9266,6.4882L41.9266,6.48432L41.8334,6.29025L41.8276,6.28249L41.7441,6.16604C41.6898,6.08841 41.6277,6.01661 41.5656,5.94771C41.4433,5.80798 41.3094,5.68474 41.1736,5.57994C40.9038,5.36743 40.6282,5.22964 40.3963,5.1394C39.9286,4.96279 39.6384,4.9492 39.6413,4.94338C39.6423,4.94532 39.3182,4.88128 38.8146,4.90457C38.5623,4.91621 38.2683,4.94823 37.9481,5.01519C37.7889,5.04721 37.624,5.08894 37.4541,5.13745L37.196,5.21799C37.0951,5.2539 37.0573,5.26263 36.8719,5.33735C36.7215,5.41789 36.5119,5.43536 36.4469,5.62555L36.2305,5.98264L35.9375,6.4688L35.3407,7.46051L34.2597,9.28868L33.1729,11.1692C32.1278,13.0275 31.728,14.2123 31.3408,16.0085C32.5179,14.6102 33.3165,13.697 34.3742,11.8582L35.462,9.99316L37.493,6.58815L37.6385,6.53672L37.8423,6.47268C37.9762,6.43289 38.1072,6.3999 38.2314,6.37467C38.4779,6.32227 38.7001,6.29898 38.8786,6.29025C39.2406,6.27278 39.4395,6.31451 39.4395,6.31257C39.4376,6.31645 39.6297,6.32906 39.8927,6.43095C39.9179,6.44163 39.946,6.45618 39.9703,6.4688L37.8646,9.05676C37.853,9.06841 37.8413,9.08102 37.8306,9.09266C36.8302,10.1387 36.084,11.0586 35.7172,11.5322C35.4261,11.9193 35.1835,12.2755 34.9661,12.6199L34.9554,12.6335L34.4382,13.3215L31.3408,17.433C31.3408,17.433 33.562,16.0579 37.5686,15.9163C39.7665,15.9425 42.4253,16.2161 44.8163,17.1263C44.8668,17.1457 44.9172,17.1574 44.9667,17.1768C45.0152,17.1962 45.0647,17.2234 45.1142,17.2428C45.3704,17.3466 45.6227,17.4572 45.8701,17.5766C45.8856,17.5843 45.9002,17.5892 45.9148,17.5969C47.7216,18.481 49.2907,19.8026 50.2533,21.7521C50.2533,21.7521 50.3018,21.8598 50.3794,22.047C50.9704,23.1659 51.4022,24.407 51.6622,25.7141C51.9689,27.3384 52.0678,29.0502 51.9126,30.727C51.7573,32.4115 51.3702,34.0873 50.8229,35.6923C49.7215,38.9033 48.003,41.8396 46.0603,44.2112C45.0861,45.3921 44.0487,46.443 42.9852,47.2581C42.4515,47.6657 41.9207,48.0092 41.3851,48.2605C40.7873,48.5458 40.2129,48.8126 39.6675,49.0319C38.5701,49.4764 37.5483,49.7714 36.6778,49.8713C35.7968,49.9751 35.1165,49.8732 34.5023,49.6908C34.1976,49.6035 33.8851,49.4938 33.5494,49.4133C33.2311,49.3289 32.776,49.3036 32.5315,49.3444C32.0346,49.4084 31.859,49.4715 31.8512,49.4676C31.827,49.4424 31.0536,49.7442 29.8494,49.8014C28.618,49.8606 26.7782,49.4327 24.6016,48.3381C22.5891,47.4173 20.529,45.3446 18.7309,42.8701C16.9396,40.3734 15.3793,37.3536 14.5108,34.0805C14.078,32.4465 13.8277,30.7512 13.8335,29.0676C13.8422,27.3773 14.0742,25.682 14.5642,24.1236C14.9465,22.9097 15.5045,21.7821 16.206,20.7943C16.3933,20.5207 16.5166,20.3693 16.5166,20.3693C16.634,20.1869 16.7669,20.0151 16.9037,19.8472L16.9008,19.8433C16.9008,19.8433 20.792,14.1716 31.2234,16.0211C30.0483,15.533 29.0382,15.173 27.9416,14.9158C26.8432,14.6674 25.6613,14.4937 24.1038,14.5558C23.2693,14.5878 21.479,14.747 19.5412,15.6242L19.0376,15.8648L18.4689,16.1715C18.0944,16.3908 17.7227,16.6237 17.3676,16.8876C16.6534,17.4087 15.9809,18.0161 15.3812,18.7041C14.1799,20.0791 13.2765,21.7569 12.7186,23.5385C11.6026,27.1026 11.6744,31.0307 12.639,34.5745C13.587,38.127 15.2473,41.3272 17.1628,43.9987C19.1036,46.6419 21.2607,48.8971 23.7846,50.0838C26.0456,51.223 28.2803,51.8072 29.9066,51.7247C30.715,51.6995 31.334,51.5627 31.7202,51.4753L32.284,51.3414C32.2782,51.3453 32.4859,51.2871 32.742,51.256C32.8711,51.2434 32.8895,51.2415 33.1088,51.2861C33.3087,51.3327 33.5969,51.4317 33.9715,51.5403C34.7167,51.7723 35.788,51.9275 36.8981,51.7839C38.014,51.6548 39.1853,51.3045 40.3876,50.8194C40.995,50.5768 41.6005,50.2944 42.2167,50.0004C42.9008,49.6782 43.5451,49.2561 44.1574,48.7913C45.3801,47.8539 46.4999,46.7108 47.5537,45.4377C49.6419,42.8847 51.4614,39.7805 52.653,36.3172C53.2449,34.5871 53.6689,32.7647 53.8417,30.9026C54.0125,29.0327 53.9077,27.1589 53.5632,25.3405" style="fill:rgb(214,224,61);fill-rule:nonzero;"/>
            <path d="M90.7658,35.6281C90.6892,34.7528 90.4485,33.9241 90.0468,33.1595C89.5626,32.2289 88.893,31.3992 88.0585,30.6928C87.2298,29.9932 86.2527,29.4372 85.1464,29.0403C82.9321,28.2475 80.2956,28.2475 78.088,29.0403C76.9808,29.4391 76.0046,29.9961 75.1934,30.6957C74.8965,30.949 74.6267,31.2265 74.3705,31.5137C74.1134,31.2255 73.8407,30.948 73.537,30.6928C72.7112,29.9941 71.7311,29.4381 70.6259,29.0403C68.4173,28.2485 65.7809,28.2475 63.5684,29.0403C62.8911,29.2838 62.2701,29.5934 61.6995,29.9514C61.6917,29.6972 61.6277,29.476 61.4938,29.2906C60.9979,28.6347 59.4017,27.8972 58.8466,27.8972C58.3634,27.8972 57.9549,28.2989 57.9549,28.7754L57.9549,39.4552L57.9714,39.4552L57.9549,49.6664C57.9549,49.939 58.0305,50.1651 58.1819,50.3398C58.704,50.9511 60.3119,51.5673 60.8068,51.5673C61.2929,51.5673 61.7034,51.186 61.7034,50.7347L61.7034,36.1938C61.7073,35.6067 61.8421,35.042 62.1051,34.5151C62.3788,33.9726 62.7572,33.4991 63.2307,33.1071C63.7198,32.7044 64.302,32.3754 64.9609,32.1299C66.2641,31.6467 67.8477,31.6321 69.216,32.1309C69.8884,32.3774 70.4745,32.7053 70.9587,33.1071C71.4371,33.502 71.8253,33.9785 72.1115,34.519C72.3502,34.9818 72.4686,35.4767 72.4987,35.9871L72.4744,49.6664C72.4744,49.9371 72.5511,50.1632 72.7015,50.3408C73.2245,50.9521 74.8344,51.5673 75.3293,51.5673C75.3293,51.5673 75.3409,51.5634 75.3477,51.5634C75.3564,51.5634 75.37,51.5673 75.3797,51.5673C75.8639,51.5673 76.2724,51.186 76.2724,50.7347L76.2724,36.121L76.2705,35.8183C76.3171,35.3651 76.4219,34.9236 76.6266,34.5141C76.8935,33.9756 77.2748,33.503 77.7503,33.108C78.2413,32.7044 78.8226,32.3754 79.4785,32.1299C80.7856,31.6467 82.3693,31.6321 83.7355,32.1309C84.4138,32.3783 84.998,32.7073 85.4812,33.1071C85.9596,33.503 86.3458,33.9794 86.6311,34.5209C86.9028,35.043 87.0425,35.6048 87.0445,36.188L87.0445,49.6664C87.0445,49.9352 87.1221,50.1622 87.2715,50.3398C87.7946,50.9511 89.4054,51.5673 89.9003,51.5673C90.3835,51.5673 90.793,51.186 90.793,50.7347L90.793,36.121L90.7901,35.6281Z" style="fill:white;fill-rule:nonzero;"/>
            <path d="M121.309,18.4875C120.823,18.4875 120.414,18.8892 120.414,19.3647L120.416,49.4751C120.416,49.7594 120.484,49.9875 120.624,50.1728C121.119,50.8288 122.715,51.5672 123.27,51.5672C123.754,51.5672 124.164,51.1645 124.164,50.689L124.164,20.5786C124.164,20.3069 124.097,20.075 123.955,19.8809C123.46,19.2259 121.862,18.4875 121.309,18.4875" style="fill:white;fill-rule:nonzero;"/>
            <path d="M98.4331,37.4334C98.9474,35.9167 99.6557,34.7503 100.539,33.9604C101.919,32.7271 103.592,32.1022 105.515,32.1022C106.682,32.1022 107.813,32.3525 108.874,32.8455C109.929,33.3374 110.788,33.9905 111.425,34.7862C111.967,35.4635 112.405,36.3514 112.732,37.4334ZM116.842,40.2523C116.814,37.2907 116.001,34.7784 114.423,32.7863C112.2,29.9654 109.19,28.5351 105.476,28.5351C101.861,28.5351 98.9367,29.9334 96.7796,32.6912C95.0863,34.8502 94.2265,37.3441 94.2265,40.1019C94.2265,43.0353 95.2406,45.7009 97.2376,48.022C99.255,50.3664 102.076,51.5541 105.63,51.5541C107.226,51.5541 108.679,51.3067 109.95,50.8186C110.958,50.4324 111.89,49.8948 112.744,49.2252C113.594,48.5896 114.485,47.7862 115.144,46.613L115.818,45.7853C115.963,45.6106 116.031,45.3845 116.006,45.1507C115.982,44.9149 115.872,44.6995 115.697,44.5587C115.286,44.2249 113.646,43.8261 112.879,44.0348C112.663,44.092 112.467,44.2288 112.3,44.4375L111.436,45.4913C111.205,45.7436 110.984,45.9648 110.766,46.1725L110.764,46.1696C110.104,46.743 109.29,47.2098 108.343,47.5572C107.393,47.9065 106.404,48.0841 105.399,48.0841C103.308,48.0841 101.601,47.3689 100.183,45.8998C98.8775,44.55 98.1449,42.8199 98.009,40.7491L116.847,40.7491Z" style="fill:white;fill-rule:nonzero;"/>
            <path d="M146.978,40.2426C146.963,41.702 146.631,43.0343 145.977,44.1997C145.314,45.3836 144.351,46.3365 143.117,47.0312C140.651,48.4189 137.707,48.4383 135.307,47.0254C134.113,46.3238 133.147,45.3273 132.438,44.0639C131.727,42.7985 131.367,41.4555 131.367,40.0737C131.367,38.6783 131.724,37.3353 132.428,36.0836C133.133,34.8328 134.091,33.8488 135.276,33.1608C136.464,32.4709 137.779,32.1216 139.185,32.1216C141.401,32.1216 143.214,32.8717 144.729,34.4165C146.216,35.9341 146.95,37.771 146.978,40.0213ZM150.516,29.8606C150.022,29.2056 148.424,28.4672 147.871,28.4672C147.386,28.4672 146.977,28.8699 146.977,29.3463L146.977,32.2235C146.049,31.1473 145.009,30.2924 143.862,29.6898C142.405,28.9232 140.756,28.5351 138.963,28.5351C135.86,28.5351 133.171,29.6665 130.966,31.8974C128.763,34.1283 127.646,36.8492 127.646,39.9864C127.646,43.1876 128.752,45.9435 130.936,48.1792C133.12,50.4188 135.796,51.5541 138.885,51.5541C140.623,51.5541 142.247,51.1873 143.716,50.4634C144.895,49.8822 145.985,49.0564 146.978,48.0171L146.978,49.594C146.978,49.8793 147.046,50.1073 147.186,50.2926C147.681,50.9476 149.277,51.6861 149.83,51.6861C150.317,51.6861 150.726,51.2844 150.726,50.8079L150.726,31.5297C150.726,31.2579 150.658,30.0557 150.516,29.8606" style="fill:white;fill-rule:nonzero;"/>
            <path d="M10.2113,16.6083L10.2113,17.5321L10.9779,17.5321C11.2098,17.5321 11.367,17.5059 11.4485,17.4526C11.5698,17.3769 11.6329,17.2478 11.6329,17.0664C11.6329,16.9082 11.5892,16.7917 11.5009,16.718C11.4146,16.6452 11.2496,16.6083 11.007,16.6083ZM9.71934,16.16L11.0177,16.16C11.3234,16.16 11.5398,16.1901 11.6746,16.2512C11.8076,16.3124 11.9153,16.4114 11.9987,16.5501C12.0841,16.6879 12.1239,16.849 12.1239,17.0324C12.1239,17.1915 12.0948,17.3284 12.0356,17.4438C11.989,17.5292 11.8901,17.6214 11.7348,17.7223C11.8755,17.7922 11.9696,17.8718 12.0172,17.963C12.0667,18.0542 12.0899,18.2094 12.0899,18.4297L12.0899,18.782C12.0899,18.9479 12.1278,19.0867 12.2015,19.1963L12.253,19.2788L11.7008,19.2788C11.6649,19.1497 11.6407,18.9974 11.6261,18.8188L11.6009,18.4355C11.5912,18.2958 11.5679,18.1968 11.5339,18.1386C11.498,18.0814 11.4466,18.0396 11.3826,18.0144C11.3185,17.9892 11.1875,17.9766 10.9925,17.9766L10.2113,17.9766L10.2113,19.2788L9.71934,19.2788ZM13.1758,17.7398C13.1758,17.3264 13.071,16.9373 12.8604,16.5724C12.6547,16.2076 12.3704,15.9213 12.0104,15.7117C11.6533,15.5021 11.2651,15.3983 10.8527,15.3983C10.4364,15.3983 10.0483,15.5021 9.68441,15.7117C9.31858,15.9213 9.03233,16.2076 8.8237,16.5724C8.61701,16.9373 8.51318,17.3293 8.51318,17.7466C8.51318,18.1638 8.61701,18.551 8.8237,18.913C9.03233,19.2739 9.32052,19.5592 9.68441,19.7679C10.0502,19.9774 10.4403,20.0822 10.8527,20.0822C11.2651,20.0822 11.6494,19.9774 12.0104,19.7669C12.3723,19.5563 12.6566,19.271 12.8643,18.912C13.071,18.551 13.1758,18.1609 13.1758,17.7398M13.5503,17.7369C13.5503,18.224 13.431,18.6762 13.1903,19.0944C12.9478,19.5117 12.6178,19.8426 12.1977,20.0852C11.7765,20.3287 11.3253,20.451 10.8459,20.451C10.3656,20.451 9.91536,20.3297 9.49519,20.0871C9.07405,19.8445 8.74219,19.5146 8.50154,19.0954C8.25894,18.6772 8.13765,18.2289 8.13765,17.7505C8.13765,17.2682 8.25894,16.815 8.50154,16.3919C8.74219,15.9689 9.07405,15.636 9.49422,15.3954C9.91245,15.1538 10.3627,15.0325 10.8459,15.0325C11.3292,15.0325 11.7785,15.1528 12.1957,15.3934C12.613,15.6341 12.9419,15.965 13.1865,16.3881C13.4291,16.8111 13.5503,17.2604 13.5503,17.7369" style="fill:rgb(214,224,61);fill-rule:nonzero;"/>
        </g>
    </g>
</svg>
